<svg width="270" height="257" viewBox="0 0 270 257" fill="none" xmlns="http://www.w3.org/2000/svg">
<mask id="mask0_840_4172" style="mask-type:luminance" maskUnits="userSpaceOnUse" x="-1" y="0" width="271" height="257">
<path d="M269.697 58.0365L53.1016 0L-0.00060086 198.18L216.595 256.217L269.697 58.0365Z" fill="white"/>
</mask>
<g mask="url(#mask0_840_4172)">
<g opacity="0.2">
<path d="M103.343 147.898C102.038 147.549 100.998 146.901 100.346 145.988C99.1798 144.331 99.5399 142.003 101.342 139.612L120.854 113.762C123.516 110.231 128.869 107.29 133.819 106.639C136.638 106.261 139.005 106.684 140.488 107.846L158.81 122.087C160.055 123.053 160.558 124.427 160.284 126.041C159.591 129.809 154.693 134.006 148.858 135.79L111.03 147.375C108.066 148.294 105.362 148.439 103.343 147.898ZM138.113 107.553C136.931 107.236 135.498 107.168 133.905 107.4C129.147 108.023 124.012 110.839 121.471 114.217L101.959 140.067C100.359 142.196 99.9992 144.129 100.996 145.53C102.427 147.574 106.265 148.022 110.776 146.648L148.587 135.032C154.912 133.089 158.92 128.865 159.483 125.879C159.733 124.549 159.337 123.467 158.305 122.69L139.983 108.449C139.483 108.051 138.851 107.75 138.113 107.553Z" fill="#5D87FF"/>
<path d="M101.654 151.242C100.423 150.912 99.4196 150.327 98.7227 149.481C97.3781 147.803 97.5347 145.446 99.2346 142.844L117.862 114.094C122.176 107.447 133.689 103.178 138.756 106.328L160.526 119.911C162.019 120.839 162.719 122.265 162.542 124.01C162.154 128.018 157.209 132.782 151.051 135.086L110.66 150.228C107.219 151.547 104.018 151.875 101.654 151.242ZM136.778 106.325C131.534 104.92 122.158 108.892 118.516 114.507L99.8893 143.256C98.4047 145.547 98.1975 147.6 99.3306 148.985C101.075 151.139 105.529 151.357 110.399 149.526L150.791 134.384C157.509 131.861 161.47 127.123 161.763 123.96C161.917 122.498 161.349 121.371 160.107 120.59L138.337 107.007C137.89 106.702 137.369 106.484 136.778 106.325Z" fill="#5D87FF"/>
<path d="M100.132 154.866C98.9742 154.556 98.0307 154.04 97.3387 153.274C95.802 151.624 95.7994 149.172 97.3107 146.387L114.628 114.65C118.619 107.337 130.807 101.931 136.724 104.86L162.207 117.488C163.979 118.358 164.901 119.844 164.863 121.758C164.767 126.055 159.988 131.286 153.454 134.201L110.679 153.317C106.7 155.071 102.889 155.605 100.132 154.866ZM135.199 105.137C129.34 103.567 118.826 108.632 115.314 115.045L97.9966 146.782C96.6514 149.242 96.6346 151.372 97.9219 152.772C99.6833 154.667 104.198 155.349 110.363 152.626L153.156 133.541C160.169 130.412 164.034 125.147 164.114 121.795C164.14 120.22 163.363 118.984 161.873 118.242L136.39 105.614C136.029 105.386 135.617 105.249 135.199 105.137Z" fill="#5D87FF"/>
<path d="M98.9075 158.836C97.8489 158.552 96.9481 158.073 96.2297 157.406C94.5009 155.783 94.2587 153.24 95.5994 150.305L111.142 115.536C114.719 107.506 127.52 100.892 134.339 103.51L163.831 114.866C165.938 115.668 167.112 117.195 167.213 119.278C167.46 123.773 162.758 129.603 156.042 133.102L110.975 156.534C106.473 158.86 102.034 159.673 98.9075 158.836ZM133.336 104.006C126.787 102.251 115.097 108.556 111.823 115.85L96.2804 150.619C95.1058 153.23 95.2728 155.463 96.7523 156.835C98.8583 158.822 103.981 159.299 110.61 155.829L155.652 132.391C162.916 128.618 166.635 122.813 166.415 119.301C166.302 117.558 165.303 116.262 163.534 115.577L134.043 104.222C133.828 104.138 133.582 104.072 133.336 104.006Z" fill="#5D87FF"/>
<path d="M97.9769 163.094C97.0168 162.837 96.152 162.42 95.4384 161.834C93.4864 160.256 93.0226 157.654 94.0943 154.541L107.352 116.682C110.402 107.957 123.733 99.9572 131.516 102.227L165.258 111.901C167.706 112.609 169.182 114.191 169.472 116.457C170.087 121.155 165.548 127.557 158.661 131.695L111.686 159.887C106.653 162.915 101.522 164.044 97.9769 163.094ZM131.188 102.956C123.852 100.991 110.951 108.763 108.095 116.96L94.8377 154.819C93.8517 157.613 94.2468 159.88 95.9364 161.256C98.9252 163.691 105.244 162.853 111.307 159.232L158.307 131.047C165.818 126.549 169.247 120.35 168.753 116.58C168.507 114.643 167.238 113.275 165.103 112.676L131.361 103.002C131.287 102.983 131.238 102.969 131.188 102.956Z" fill="#5D87FF"/>
<path d="M97.4079 167.686C96.5462 167.455 95.7667 167.114 95.0761 166.639C92.876 165.101 92.1349 162.451 92.9621 159.166L103.371 118.251C105.765 108.823 119.528 99.4095 128.352 101.141L166.586 108.724C169.414 109.297 171.241 110.946 171.744 113.401C172.762 118.366 168.55 125.224 161.478 130.051L112.835 163.384C107.276 167.193 101.445 168.768 97.4079 167.686ZM167.01 109.602C166.838 109.556 166.641 109.503 166.437 109.475L128.204 101.892C119.885 100.243 106.397 109.519 104.116 118.424L93.7073 159.34C92.9591 162.329 93.5578 164.624 95.5199 165.967C99.0767 168.449 106.029 167.123 112.401 162.741L161.044 129.407C168.641 124.194 171.813 117.479 170.994 113.543C170.576 111.559 169.201 110.189 167.01 109.602Z" fill="#5D87FF"/>
<path d="M97.1727 172.5C96.4587 172.308 95.7958 172.025 95.2018 171.682C92.7407 170.231 91.6729 167.52 92.1999 164.076L99.1168 120.142C100.712 110.052 114.823 99.0455 124.702 100.19L167.682 105.222C170.958 105.599 173.168 107.298 173.921 110.004C175.369 115.137 171.45 122.574 164.385 128.062L114.506 166.995C108.506 171.661 101.752 173.727 97.1727 172.5ZM167.626 105.628L167.576 106.01L124.596 100.978C115.229 99.8924 101.382 110.706 99.8752 120.267L92.9582 164.2C92.4545 167.36 93.3552 169.711 95.5653 171.014C99.759 173.483 107.339 171.586 113.984 166.381L163.882 127.479C170.69 122.16 174.517 115.066 173.144 110.244C172.473 107.823 170.537 106.382 167.545 106.028L167.626 105.628Z" fill="#5D87FF"/>
<path d="M97.4665 177.613C96.9249 177.468 96.3965 177.273 95.9059 177.036C93.1278 175.686 91.6956 172.956 91.8977 169.346L94.6279 122.524C95.2455 111.75 109.563 99.0852 120.579 99.5325L168.493 101.511C172.249 101.674 174.929 103.393 175.986 106.339C177.871 111.615 174.325 119.628 167.367 125.803L116.722 170.646C110.322 176.312 102.711 179.018 97.4665 177.613ZM168.475 101.875L168.45 102.264L120.535 100.285C110.095 99.8602 96.0083 112.35 95.4126 122.55L92.6824 169.372C92.4789 172.691 93.7128 175.078 96.2333 176.307C101.14 178.676 109.349 176.104 116.169 170.05L166.796 125.176C173.541 119.207 176.988 111.563 175.192 106.548C174.222 103.863 171.879 102.366 168.407 102.226L168.475 101.875Z" fill="#5D87FF"/>
<path d="M98.3283 182.958C97.9837 182.866 97.6456 182.749 97.3321 182.638C94.1747 181.423 92.3535 178.668 92.1748 174.904L89.9925 125.342C89.7675 120.273 92.4687 114.328 97.4349 108.99C102.923 103.08 110.034 99.291 115.99 99.1208L168.966 97.4734C173.277 97.3369 176.433 99.0523 177.856 102.307C180.256 107.827 177.249 116.194 170.352 123.124L119.558 174.333C112.824 181.148 104.286 184.554 98.3283 182.958ZM172.329 98.6117C171.319 98.3412 170.215 98.2297 168.99 98.2706L115.996 99.8868C110.25 100.061 103.327 103.741 97.9761 109.53C93.2301 114.637 90.5421 120.534 90.7411 125.305L92.948 174.874C93.0941 178.366 94.7105 180.802 97.6037 181.92C103.298 184.105 112.082 180.765 119.017 173.793L169.811 122.584C176.356 115.981 179.379 107.75 177.14 102.616C176.259 100.587 174.594 99.2186 172.329 98.6117Z" fill="#5D87FF"/>
<path d="M99.7954 188.517C99.7216 188.497 99.6477 188.478 99.5739 188.458C95.9993 187.421 93.7019 184.67 93.0933 180.738L85.1725 128.663C84.4041 123.554 86.5541 117.303 91.0775 111.451C96.5098 104.471 104.094 99.7025 110.874 99.0152L169.064 93.1763C173.974 92.6733 177.686 94.3796 179.531 97.9317C182.455 103.565 179.989 112.473 173.39 120.063L123.115 178.001C116.132 186.041 106.59 190.338 99.7954 188.517ZM169.106 93.6094L169.137 93.9867L110.947 99.8255C104.359 100.485 96.9935 105.128 91.6811 111.955C87.2909 117.606 85.1937 123.66 85.9343 128.577L93.8551 180.652C94.4246 184.337 96.4612 186.78 99.7896 187.751C106.33 189.635 115.66 185.44 122.529 177.528L172.791 119.639C179.194 112.287 181.617 103.736 178.831 98.3769C177.142 95.13 173.681 93.57 169.124 94.0359L169.106 93.6094Z" fill="#5D87FF"/>
<path d="M101.975 194.268C98.3318 193.291 95.7848 190.685 94.7541 186.85L80.2425 132.588C78.8749 127.45 80.3997 120.873 84.4738 114.531C89.6707 106.461 97.6186 100.63 105.237 99.376L168.699 88.7289C174.253 87.7922 178.615 89.4354 180.981 93.3115C184.513 99.1345 182.734 108.332 176.401 116.705L127.451 181.614C120.618 190.67 110.466 195.963 102.794 194.461C102.523 194.388 102.246 194.34 101.975 194.268ZM174.816 89.6301C173.068 89.1617 171.054 89.0965 168.816 89.4721L105.354 100.119C97.9528 101.352 90.2054 107.026 85.1284 114.944C81.1875 121.084 79.6728 127.427 80.988 132.366L95.4997 186.628C96.5483 190.494 99.1103 192.947 102.924 193.679C110.325 195.108 120.147 189.964 126.816 181.128L175.766 116.218C181.791 108.211 183.634 99.1628 180.294 93.7074C179.055 91.6356 177.18 90.2633 174.816 89.6301Z" fill="#5D87FF"/>
<path d="M104.943 200.124C101.349 199.161 98.6506 196.725 97.2455 193.106L75.215 137.066C73.1744 131.88 74.0675 125.002 77.6429 118.158C82.3729 109.171 90.7619 102.088 99.041 100.141L167.799 84.0073C173.937 82.5678 179.142 84.1204 182.089 88.2844C186.257 94.1985 185.182 103.822 179.333 112.851L132.598 185.05C126.152 195.026 115.667 201.364 107.082 200.513C106.342 200.42 105.633 200.309 104.943 200.124ZM167.886 84.3732L167.973 84.7391L99.2324 100.904C91.1766 102.805 82.9634 109.725 78.3354 118.528C74.8684 125.164 73.9855 131.808 75.9491 136.789L97.9795 192.828C99.5812 196.895 102.762 199.303 107.157 199.742C115.458 200.569 125.643 194.363 131.944 184.637L178.653 112.432C184.325 103.671 185.419 94.3696 181.439 88.7427C178.642 84.8037 173.874 83.3943 167.966 84.7636L167.886 84.3732Z" fill="#5D87FF"/>
<path d="M108.794 206.033C105.298 205.097 102.492 202.868 100.723 199.521L70.2083 142.157C67.4389 136.934 67.6083 129.704 70.6605 122.35C74.8136 112.365 83.3202 104.153 92.3355 101.429L166.266 79.0888C173.101 77.0188 179.111 78.4185 182.789 82.9098C187.636 88.848 187.364 98.9236 182.116 108.562L138.676 188.26C132.797 199.074 122.076 206.587 112.675 206.519C111.296 206.545 110 206.356 108.794 206.033ZM166.489 79.8338L92.5581 102.174C83.7727 104.828 75.4418 112.876 71.3727 122.646C68.3978 129.81 68.2204 136.774 70.8817 141.81L101.372 199.168C103.614 203.406 107.63 205.748 112.638 205.771C121.78 205.822 132.22 198.471 137.977 187.915L181.417 108.217C186.512 98.8535 186.828 89.106 182.181 83.406C178.721 79.1839 173.006 77.8634 166.489 79.8338Z" fill="#5D87FF"/>
<path d="M113.537 211.97C110.14 211.059 107.299 209.059 105.228 206.053L65.2542 147.947C61.6262 142.678 60.9915 135.101 63.5157 127.157C66.9604 116.271 75.4304 106.916 85.0966 103.338L164.076 74.0732C171.633 71.2744 178.55 72.4424 183.045 77.2318C188.707 83.2827 189.354 93.4728 184.717 103.882L145.719 191.228C140.486 202.979 129.996 211.503 119.637 212.444C117.452 212.623 115.408 212.471 113.537 211.97ZM175.955 73.8558C172.508 72.9323 168.522 73.2349 164.311 74.769L85.357 104.04C75.9206 107.548 67.6396 116.69 64.2477 127.38C61.8074 135.108 62.4029 142.438 65.8735 147.506L105.854 205.588C108.915 210.019 113.769 212.19 119.558 211.658C129.643 210.75 139.877 202.394 144.989 190.9L183.987 103.554C188.488 93.4519 187.917 83.5719 182.455 77.7591C180.676 75.8326 178.466 74.5287 175.955 73.8558Z" fill="#5D87FF"/>
<path d="M119.283 217.806C116.058 216.942 113.206 215.176 110.907 212.53L60.4122 154.399C55.814 149.107 54.308 141.138 56.2188 132.53C58.8304 120.814 67.1208 110.356 77.2968 105.86L161.027 68.907C169.285 65.2677 177.19 66.0943 182.688 71.1789C189.185 77.1637 190.84 87.7292 187.004 98.6953L153.744 193.773C149.422 206.164 139.103 215.92 128.12 218.012C125.006 218.601 121.991 218.531 119.283 217.806ZM161.219 69.2747L161.386 69.6358L77.6376 106.558C67.6735 110.953 59.5654 121.222 56.9952 132.685C55.119 141.066 56.5859 148.787 61.0267 153.878L111.49 212.027C115.524 216.667 121.385 218.527 128.009 217.244C138.744 215.191 148.793 205.653 153.05 193.508L186.31 98.4302C190.042 87.7527 188.481 77.5284 182.197 71.7325C176.93 66.8682 169.327 66.0961 161.368 69.6046L161.219 69.2747Z" fill="#5D87FF"/>
<path d="M126.102 223.481C123.074 222.67 120.318 221.14 117.9 218.937L55.8255 161.578C50.1143 156.305 47.5645 147.898 48.8326 138.537C50.5156 126.151 58.441 114.594 69.0595 109.136L157.196 63.7149C166.131 59.1236 175.076 59.5171 181.758 64.8132C189.177 70.7026 191.971 81.547 189.066 93.0787L163.01 195.834C159.677 208.964 150.028 219.664 138.399 223.085C134.044 224.37 129.869 224.49 126.102 223.481ZM157.37 64.0514L157.543 64.3879L69.4003 109.833C59.0183 115.197 51.2392 126.503 49.5975 138.637C48.3707 147.745 50.8255 155.915 56.3481 161.006L118.423 218.365C123.629 223.161 130.634 224.59 138.17 222.365C149.52 219.001 158.979 208.514 162.24 195.654L188.296 92.8988C191.147 81.6689 188.453 71.1411 181.271 65.4473C174.852 60.3533 166.191 59.9832 157.555 64.4437L157.37 64.0514Z" fill="#5D87FF"/>
<path d="M133.93 228.821C131.197 228.089 128.627 226.847 126.294 225.115L51.5122 169.491C44.4958 164.263 40.7481 155.404 41.2946 145.191C41.9703 132.034 49.2398 119.773 60.2845 113.217L152.333 58.5116C161.749 52.9156 172.082 52.7583 179.968 58.0874C188.57 63.8981 192.539 74.6884 190.623 86.9596L173.325 197.307C171.203 210.841 162.197 222.688 150.352 227.502C144.782 229.779 139.075 230.2 133.93 228.821ZM152.55 58.8859L152.748 59.229L60.6812 113.903C49.8861 120.316 42.763 132.325 42.0727 145.241C41.5675 155.202 45.171 163.812 51.9922 168.882L126.774 224.505C133.291 229.336 141.771 230.184 150.092 226.799C161.675 222.074 170.517 210.446 172.591 197.189L189.883 86.8667C191.769 74.9038 187.906 64.4056 179.549 58.7658C171.931 53.6143 161.914 53.777 152.755 59.2044L152.55 58.8859Z" fill="#5D87FF"/>
<path d="M142.976 233.855C140.638 233.229 138.384 232.282 136.248 230.998L47.708 178.172C39.1565 173.06 34.0565 163.733 33.7289 152.548C33.3183 138.915 39.9779 125.78 51.1073 118.218L146.433 53.4509C156.368 46.7025 167.893 45.8367 177.239 51.1351C187.02 56.6818 192.427 67.6202 191.682 80.4426L184.897 198.035C184.096 212.055 176.147 224.687 164.184 231.024C157.199 234.74 149.771 235.676 142.976 233.855ZM146.662 53.776L146.892 54.1011L51.5417 118.862C40.6374 126.273 34.0929 139.175 34.4956 152.542C34.8218 163.437 39.771 172.54 48.096 177.512L136.661 230.344C144.784 235.183 154.675 235.198 163.837 230.351C175.581 224.14 183.359 211.752 184.144 197.992L190.929 80.3988C191.643 67.8848 186.405 57.2025 176.869 51.8267C167.774 46.6747 156.571 47.5213 146.885 54.1257L146.662 53.776Z" fill="#5D87FF"/>
<path d="M153.141 238.371C151.344 237.889 149.593 237.236 147.857 236.428L44.4197 187.597C34.09 182.721 27.403 172.916 26.0668 160.669C24.5304 146.708 30.4618 132.745 41.515 124.188L139.358 48.5498C149.703 40.5669 162.411 38.8319 173.374 43.9046C184.527 49.0547 191.54 60.1069 192.128 73.4709L197.73 197.915C198.366 212.082 191.519 225.721 179.836 233.477C171.454 239.06 161.98 240.739 153.141 238.371ZM168.168 42.8522C158.689 40.3126 148.434 42.5465 139.848 49.182L42.0053 124.82C31.1591 133.196 25.3428 146.926 26.8533 160.59C28.1569 172.564 34.6931 182.144 44.7651 186.899L148.203 235.729C158.207 240.44 169.569 239.398 179.426 232.84C190.884 225.234 197.61 211.853 196.981 197.951L191.355 73.5009C190.762 60.4519 183.918 49.6558 173.053 44.6094C171.458 43.8657 169.817 43.2942 168.168 42.8522Z" fill="#5D87FF"/>
<path d="M164.252 242.192C163.243 241.922 162.247 241.602 161.233 241.251L41.8613 197.826C29.6696 193.399 20.9115 182.854 18.4107 169.637C15.7255 155.237 20.6493 140.898 31.6527 131.246L131.036 43.948C141.601 34.6533 155.482 31.8882 168.202 36.5091C180.898 41.1234 189.752 52.1947 191.89 66.0792L211.877 196.803C214.098 211.264 208.664 225.439 197.339 234.715C187.751 242.531 175.602 245.233 164.252 242.192ZM164.936 36.2928C153.34 33.1858 141.063 36.1697 131.54 44.5311L32.1561 131.829C21.3598 141.299 16.5018 155.392 19.1611 169.495C21.6047 182.434 30.1808 192.771 42.1083 197.101L161.48 240.527C173.407 244.856 186.608 242.462 196.811 234.125C207.929 225.031 213.259 211.144 211.078 196.932L191.09 66.2077C189.016 52.5775 180.331 41.7623 167.931 37.2271C166.916 36.8763 165.92 36.5566 164.936 36.2928Z" fill="#5D87FF"/>
<path d="M176.51 245.292L40.1727 208.76C25.697 204.881 14.7263 193.928 10.8493 179.446C6.97229 164.964 10.979 150.01 21.5712 139.431L121.321 39.7368C131.944 29.1397 146.922 25.1395 161.397 29.0182C175.873 32.897 186.844 43.85 190.721 58.3324L227.284 194.552C231.161 209.034 227.155 223.988 216.562 234.567C205.97 245.146 190.986 249.171 176.51 245.292ZM121.619 40.0013L121.887 40.2838L22.1125 139.972C11.7027 150.362 7.76841 165.045 11.5882 179.249C15.408 193.452 26.1721 204.192 40.377 207.998L176.715 244.53C190.92 248.336 205.611 244.417 216.021 234.026C226.431 223.636 230.365 208.953 226.545 194.749L189.982 58.5298C186.162 44.3263 175.405 33.5623 161.2 29.756C146.995 25.9498 132.303 29.8685 121.893 40.2592L121.619 40.0013Z" fill="#5D87FF"/>
</g>
</g>
</svg>
