<svg width="867" height="938" viewBox="0 0 867 938" fill="none" xmlns="http://www.w3.org/2000/svg">
<g opacity="0.3">
<path d="M688.345 266.828C688.345 266.828 599.051 378.379 486.209 383.687C373.367 388.996 303.119 424.393 339.767 576.443C376.401 728.494 374.959 841.416 200.581 880.933" stroke="white" stroke-miterlimit="10"/>
<path d="M203.585 880.698C373.703 842.15 370.746 729.244 337.435 578.023C304.125 426.803 376.866 395.326 488.167 384.325C599.468 373.324 684.225 261.595 686.22 260.384" stroke="#F9F9F9" stroke-miterlimit="10"/>
<path d="M206.588 880.464C372.454 842.877 365.097 729.987 335.11 579.597C305.123 429.207 380.374 401.663 490.132 384.955C599.89 368.248 680.097 256.356 684.095 253.941" stroke="#F3F3F3" stroke-miterlimit="10"/>
<path d="M209.585 880.237C371.198 843.611 359.442 730.737 332.778 581.178C306.123 431.625 383.873 407.993 492.083 385.601C600.3 363.2 675.97 251.131 681.956 247.512" stroke="#ECECEC" stroke-miterlimit="10"/>
<path d="M212.588 880.003C369.948 844.338 353.785 731.473 330.46 582.758C307.128 434.036 387.388 414.337 494.055 386.237C600.723 358.138 671.849 245.898 679.839 241.075" stroke="#E6E6E6" stroke-miterlimit="10"/>
<path d="M215.592 879.769C368.707 845.071 348.13 732.223 328.135 584.331C308.141 436.439 390.888 420.667 496.028 386.874C601.154 353.082 667.736 240.658 677.728 234.63" stroke="#E0E0E0" stroke-miterlimit="10"/>
<path d="M218.588 879.542C367.444 845.814 342.474 732.974 325.803 585.912C309.132 438.851 394.395 427.005 497.985 387.512C601.576 348.02 663.609 235.433 675.596 228.195" stroke="#DADADA" stroke-miterlimit="10"/>
<path d="M221.592 879.308C366.195 846.541 336.825 733.717 323.486 587.492C310.146 441.268 397.902 433.342 499.952 388.157C601.993 342.965 659.489 230.2 673.472 221.765" stroke="#D3D3D3" stroke-miterlimit="10"/>
<path d="M224.595 879.073C364.945 847.268 331.176 734.459 321.16 589.065C311.152 443.678 401.416 439.671 501.916 388.787C602.416 337.902 655.374 224.96 671.347 215.321" stroke="#CDCDCD" stroke-miterlimit="10"/>
<path d="M227.592 878.847C363.689 848.002 325.514 735.217 318.836 590.653C312.152 446.096 404.916 446.015 503.882 389.431C602.847 332.846 651.248 219.734 669.229 208.884" stroke="#C7C7C7" stroke-miterlimit="10"/>
<path d="M230.595 878.612C362.44 848.729 319.866 735.96 316.511 592.226C313.156 448.493 408.422 452.338 505.846 390.061C603.263 327.777 647.126 214.488 667.096 202.434" stroke="#C1C1C1" stroke-miterlimit="10"/>
<path d="M233.598 878.378C361.191 849.47 314.216 736.703 314.185 593.8C314.162 450.903 411.929 458.675 507.804 390.699C603.679 322.723 642.999 209.262 664.964 195.998" stroke="#BBBBBB" stroke-miterlimit="10"/>
<path d="M236.602 878.144C359.942 850.197 308.56 737.439 311.868 595.38C315.168 453.314 415.443 465.005 509.777 391.336C604.11 317.667 638.885 204.022 662.853 189.553" stroke="#B4B4B4" stroke-miterlimit="10"/>
<path d="M239.598 877.917C358.685 850.931 302.904 738.189 309.536 596.96C316.167 455.732 418.944 471.349 511.734 391.973C604.525 312.598 634.758 198.797 660.721 183.117" stroke="#AEAEAE" stroke-miterlimit="10"/>
<path d="M242.602 877.682C357.436 851.658 297.249 738.939 307.211 598.534C317.172 458.128 422.45 477.672 513.699 392.603C604.948 307.535 630.637 193.55 658.596 176.673" stroke="#A8A8A8" stroke-miterlimit="10"/>
<path d="M245.605 877.448C356.187 852.385 291.6 739.682 304.893 600.114C318.178 460.539 425.957 484.009 515.665 393.248C605.373 302.487 626.518 188.331 656.472 170.244" stroke="#A2A2A2" stroke-miterlimit="10"/>
<path d="M248.602 877.221C354.924 853.127 285.945 740.432 302.561 601.694C319.177 462.957 429.464 490.346 517.623 393.886C605.788 297.418 622.389 183.092 654.346 163.8" stroke="#9B9B9B" stroke-miterlimit="10"/>
<path d="M251.613 876.994C353.682 853.86 280.296 741.175 300.243 603.275C320.183 465.368 432.972 496.683 519.595 394.523C606.219 292.362 618.269 177.859 652.229 157.363" stroke="#959595" stroke-miterlimit="10"/>
<path d="M254.616 876.759C352.433 854.587 274.648 741.932 297.926 604.854C321.197 467.785 436.493 503.019 521.567 395.159C606.649 287.306 614.163 172.625 650.111 150.926" stroke="#8F8F8F" stroke-miterlimit="10"/>
<path d="M257.605 876.526C351.177 855.322 268.985 742.676 295.586 606.429C322.187 470.182 439.978 509.35 523.511 395.798C607.044 282.246 610.014 167.395 647.965 144.491" stroke="#898989" stroke-miterlimit="10"/>
<path d="M260.608 876.291C349.927 856.048 263.336 743.418 293.261 608.002C323.193 472.592 443.484 515.673 525.476 396.428C607.474 277.176 605.9 162.154 645.846 138.039" stroke="#838383" stroke-miterlimit="10"/>
<path d="M263.619 876.064C348.679 856.79 257.687 744.161 290.95 609.589C324.207 475.01 447.007 522.023 527.455 397.072C607.904 272.12 601.793 156.92 643.736 131.609" stroke="#7C7C7C" stroke-miterlimit="10"/>
<path d="M266.623 875.829C347.429 857.516 252.031 744.911 288.625 611.162C325.213 477.42 450.513 528.346 529.42 397.702C608.327 267.057 597.673 151.687 641.611 125.165" stroke="#767676" stroke-miterlimit="10"/>
<path d="M269.62 875.603C346.173 858.251 246.376 745.662 286.294 612.743C326.211 479.824 454.014 534.691 531.386 398.346C608.744 262.003 593.547 146.462 639.479 118.729" stroke="#707070" stroke-miterlimit="10"/>
<path d="M272.623 875.368C344.924 858.978 240.727 746.404 283.976 614.323C327.224 482.241 457.527 541.02 533.352 398.99C609.175 256.946 589.426 141.229 637.361 112.292" stroke="#6A6A6A" stroke-miterlimit="10"/>
<path d="M275.626 875.134C343.675 859.718 235.078 747.147 281.65 615.896C328.222 484.645 461.027 547.35 535.316 399.62C609.591 251.891 585.298 135.99 635.23 105.856" stroke="#646464" stroke-miterlimit="10"/>
<path d="M278.623 874.907C342.419 860.453 229.416 747.905 279.326 617.483C329.23 487.07 464.542 553.694 537.282 400.265C610.015 246.829 581.178 130.757 633.105 99.4119" stroke="#5D5D5D" stroke-miterlimit="10"/>
<path d="M281.626 874.673C341.17 861.18 223.767 748.647 277.001 619.057C330.228 489.474 468.041 560.024 539.24 400.902C610.438 241.767 577.057 125.524 630.987 92.9746" stroke="#575757" stroke-miterlimit="10"/>
<path d="M284.63 874.439C339.92 861.907 218.118 749.39 274.676 620.63C331.24 491.877 471.549 566.361 541.205 401.533C610.861 236.704 572.937 120.292 628.862 86.5313" stroke="#515151" stroke-miterlimit="10"/>
<path d="M287.626 874.212C338.664 862.641 212.455 750.134 272.351 622.218C332.24 494.295 475.056 572.698 543.17 402.177C611.277 231.65 568.816 115.059 626.73 80.0954" stroke="#4B4B4B" stroke-miterlimit="10"/>
<path d="M290.63 873.977C337.409 863.376 206.806 750.877 270.026 623.791C333.246 496.706 478.555 579.029 545.135 402.807C611.701 226.587 564.696 109.826 624.612 73.6581" stroke="#444444" stroke-miterlimit="10"/>
<path d="M293.633 873.743C336.167 864.109 201.151 751.627 267.701 625.364C334.244 499.11 482.069 585.358 547.1 403.437C612.13 221.517 560.574 104.579 622.493 67.2067" stroke="#3E3E3E" stroke-miterlimit="10"/>
<path d="M296.63 873.516C334.91 864.844 195.495 752.377 265.376 626.952C335.25 501.52 485.57 591.703 549.059 404.09C612.54 216.47 556.447 99.3543 620.355 60.7783" stroke="#383838" stroke-miterlimit="10"/>
<path d="M299.633 873.282C333.661 865.57 189.846 753.12 263.051 628.525C336.255 503.931 489.083 598.032 551.023 404.72C612.963 211.407 552.327 94.1215 618.237 54.3411" stroke="#323232" stroke-miterlimit="10"/>
<path d="M302.636 873.047C332.405 866.305 184.191 753.87 260.719 630.106C337.247 506.342 492.576 604.37 552.981 405.357C613.386 206.345 548.206 88.8886 616.112 47.8973" stroke="#2C2C2C" stroke-miterlimit="10"/>
<path d="M305.64 872.813C331.156 867.032 178.535 754.606 258.402 631.686C338.261 508.759 496.09 610.699 554.954 405.994C613.803 201.29 544.086 83.6557 613.98 41.4612" stroke="#252525" stroke-miterlimit="10"/>
<path d="M308.636 872.586C329.899 867.766 172.887 755.363 256.076 633.259C339.259 511.163 499.597 617.036 556.912 406.632C614.226 196.228 539.966 78.423 611.863 35.0241" stroke="#1F1F1F" stroke-miterlimit="10"/>
<path d="M311.64 872.352C328.65 868.493 167.23 756.1 253.751 634.833C340.271 513.567 503.103 623.359 558.876 407.262C614.649 191.165 535.838 73.1841 609.737 28.5807" stroke="#191919" stroke-miterlimit="10"/>
<path d="M314.643 872.118C327.4 869.22 161.581 756.842 251.433 636.413C341.277 515.977 506.618 629.703 560.848 407.899C615.072 186.103 531.717 67.9512 607.612 22.137" stroke="#131313" stroke-miterlimit="10"/>
<path d="M317.64 871.891C326.145 869.969 155.919 757.6 249.095 638.001C342.27 518.403 510.111 636.041 562.8 408.544C615.496 181.054 527.597 62.7183 605.488 15.7073" stroke="#0C0C0C" stroke-miterlimit="10"/>
<path d="M320.643 871.657C324.896 870.696 150.27 758.343 246.784 639.573C343.283 520.805 513.625 642.37 564.772 409.181C615.919 175.992 523.476 57.4855 603.363 9.26358" stroke="#060606" stroke-miterlimit="10"/>
<path d="M323.647 871.422C323.647 871.422 144.621 759.085 244.452 641.155C344.289 523.216 517.132 648.707 566.73 409.819C616.343 170.93 519.356 52.2526 601.237 2.81989" stroke="#215FF6" stroke-miterlimit="10"/>
</g>
</svg>
