<?xml version="1.0" standalone="no"?>
<!DOCTYPE svg PUBLIC "-//W3C//DTD SVG 20010904//EN"
 "http://www.w3.org/TR/2001/REC-SVG-20010904/DTD/svg10.dtd">
<svg version="1.0" xmlns="http://www.w3.org/2000/svg"
 width="568.000000pt" height="568.000000pt" viewBox="0 0 568.000000 568.000000"
 preserveAspectRatio="xMidYMid meet">
<metadata>
Created by potrace 1.14, written by Peter Selinger 2001-2017
</metadata>
<g transform="translate(0.000000,568.000000) scale(0.100000,-0.100000)"
fill="#000000" stroke="none">
<path d="M2540 5628 c-97 -53 -204 -110 -310 -166 -47 -24 -132 -70 -190 -102
-58 -31 -143 -77 -190 -101 -47 -24 -86 -47 -88 -51 -2 -5 -12 -8 -23 -8 -10
0 -19 -4 -19 -10 0 -5 -6 -10 -13 -10 -8 0 -21 -8 -29 -17 -14 -16 -16 -282
-14 -2573 l1 -2555 483 0 c326 -1 482 3 483 10 1 5 2 1273 3 2818 1 1866 -2
2807 -9 2807 -5 -1 -44 -19 -85 -42z"/>
<path d="M5345 5472 c-46 -26 -123 -68 -310 -167 -152 -81 -213 -114 -275
-147 -36 -19 -105 -57 -155 -83 -49 -27 -107 -57 -127 -69 -31 -16 -38 -25
-39 -50 0 -17 -1 -788 -2 -1713 l-2 -1683 60 -1 c62 0 757 0 858 1 l57 0 0
1970 c0 1084 -3 1970 -7 1970 -5 0 -30 -13 -58 -28z"/>
<path d="M1195 4266 c-22 -12 -87 -48 -145 -78 -120 -63 -242 -129 -350 -188
-41 -22 -95 -50 -120 -62 -25 -12 -47 -24 -50 -27 -3 -3 -52 -30 -110 -60 -58
-30 -114 -60 -125 -68 -20 -13 -20 -25 -20 -1463 0 -985 3 -1451 10 -1453 5
-1 224 -2 485 -2 l475 1 1 1712 c0 942 -2 1712 -5 1712 -3 -1 -24 -11 -46 -24z"/>
<path d="M3925 4241 c-50 -26 -121 -65 -160 -85 -312 -169 -457 -245 -476
-251 -10 -4 -19 -11 -19 -16 0 -5 -9 -9 -19 -9 -11 0 -21 -3 -23 -7 -3 -7 -96
-59 -155 -87 l-23 -11 3 -1628 2 -1629 90 1 c50 1 97 1 105 2 8 0 62 0 120 0
58 -1 112 -1 120 0 8 0 62 0 120 0 58 -1 112 -1 120 0 8 0 62 0 120 0 58 -1
121 -1 140 -1 l35 0 -1 1880 c-1 1034 -3 1882 -5 1885 -2 2 -45 -18 -94 -44z"/>
</g>
</svg>
